HIERARCHY
ROOT Hips
{
	OFFSET 0.000000 0.000000 0.000000 
	CHANNELS 6 Xposition Yposition Zposition Zrotation Xrotation Yrotation
	JOINT Spine
	{
		OFFSET -0.000000 8.061080 0.000000 
		CHANNELS 3 Zrotation Xrotation Yrotation
		JOINT Spine1
		{
			OFFSET -0.000000 20.532677 0.000000 
			CHANNELS 3 Zrotation Xrotation Yrotation
			JOINT Neck
			{
				OFFSET -0.000000 22.498795 0.000000 
				CHANNELS 3 Zrotation Xrotation Yrotation
				JOINT Head
				{
					OFFSET -0.000000 15.237408 1.966117 
					CHANNELS 3 Zrotation Xrotation Yrotation
					End Site
					{
						OFFSET -0.000000 19.661171 0.000000 
					}
				}
			}
			JOINT LeftShoulder
			{
				OFFSET 3.894675 16.042269 -0.398189 
				CHANNELS 3 Zrotation Xrotation Yrotation
				JOINT LeftArm
				{
					OFFSET 19.709621 0.000000 0.000000 
					CHANNELS 3 Zrotation Xrotation Yrotation
					JOINT LeftForeArm
					{
						OFFSET 25.566900 0.000000 0.000000 
						CHANNELS 3 Zrotation Xrotation Yrotation
						JOINT LeftHand
						{
							OFFSET 25.401896 0.000000 0.000000 
							CHANNELS 3 Zrotation Xrotation Yrotation
							End Site
							{
								OFFSET 14.745877 0.000000 0.000000 
							}
						}
					}
				}
			}
			JOINT RightShoulder
			{
				OFFSET -3.930777 16.042269 -0.398189 
				CHANNELS 3 Zrotation Xrotation Yrotation
				JOINT RightArm
				{
					OFFSET -19.709621 0.000000 0.000000 
					CHANNELS 3 Zrotation Xrotation Yrotation
					JOINT RightForeArm
					{
						OFFSET -25.566900 0.000000 0.000000 
						CHANNELS 3 Zrotation Xrotation Yrotation
						JOINT RightHand
						{
							OFFSET -25.401896 0.000000 0.000000 
							CHANNELS 3 Zrotation Xrotation Yrotation
							End Site
							{
								OFFSET -14.745877 0.000000 0.000000 
							}
						}
					}
				}
			}
		}
	}
	JOINT LeftUpLeg
	{
		OFFSET 9.830585 0.000000 0.000000 
		CHANNELS 3 Zrotation Xrotation Yrotation
		JOINT LeftLeg
		{
			OFFSET -0.000000 -46.474842 0.000000 
			CHANNELS 3 Zrotation Xrotation Yrotation
			JOINT LeftFoot
			{
				OFFSET -0.000000 -30.290520 0.000000 
				CHANNELS 3 Zrotation Xrotation Yrotation
				JOINT LeftToeBase
				{
					OFFSET -0.000000 -6.389880 14.745877 
					CHANNELS 3 Zrotation Xrotation Yrotation
					End Site
					{
						OFFSET -0.000000 0.000000 3.932234 
					}
				}
			}
		}
	}
	JOINT RightUpLeg
	{
		OFFSET -9.830585 0.000000 0.000000 
		CHANNELS 3 Zrotation Xrotation Yrotation
		JOINT RightLeg
		{
			OFFSET -0.000000 -46.474842 0.000000 
			CHANNELS 3 Zrotation Xrotation Yrotation
			JOINT RightFoot
			{
				OFFSET -0.000000 -30.290520 0.000000 
				CHANNELS 3 Zrotation Xrotation Yrotation
				JOINT RightToeBase
				{
					OFFSET -0.000000 -6.389880 14.745877 
					CHANNELS 3 Zrotation Xrotation Yrotation
					End Site
					{
						OFFSET -0.000000 0.000000 3.932234 
					}
				}
			}
		}
	}
}
MOTION
Frames: 7
Frame Time: 0.010000
-9.654915 84.943520 11.149345 1.268560 2.510834 -23.101357 2.807143 -3.873880 0.098990 2.821596 -1.518691 0.025812 2.520602 9.813971 -1.607983 0.505103 6.636111 -1.201387 3.065941 13.548147 2.270249 -73.367043 22.866787 -22.945107 -9.859033 -0.076927 -5.921410 5.655142 -0.315397 5.518012 -8.478742 9.221192 -9.585471 50.090668 55.480293 40.328972 6.155351 -9.995034 8.275153 -7.844042 -10.709676 4.093193 11.242626 -9.873104 3.080463 0.847294 12.056870 14.578863 -6.168514 1.701393 -9.063057 0.000000 0.000000 0.000000 -5.926710 -5.012865 12.923906 11.786222 13.695221 -9.228281 -5.041903 -7.977873 -9.198166 0.000000 0.000000 0.000000 
-9.630742 84.941856 11.471738 1.249911 2.492400 -23.985096 2.749904 -3.867101 0.139018 2.956463 -1.432424 0.054900 2.452549 9.801142 -1.585599 0.653476 6.757148 -1.221728 3.032503 13.593730 2.260322 -73.312775 22.980396 -23.060825 -9.899283 -0.050147 -5.873763 5.597456 -0.287174 5.562021 -8.531707 9.157714 -9.499668 50.205311 55.369328 40.227779 6.181128 -9.988254 8.284288 -7.854475 -10.702663 4.049505 11.462524 -9.546844 2.715753 0.684974 10.940458 15.119231 -6.122329 2.397647 -9.382608 0.000000 0.000000 0.000000 -5.982885 -4.925214 13.068344 11.664644 13.684175 -8.817826 -4.871357 -7.994002 -8.956565 0.000000 0.000000 0.000000 
-9.581888 84.947617 11.770620 1.317888 2.518682 -24.960621 2.758850 -3.779567 0.241752 2.832312 -1.487888 0.086526 2.585196 9.723216 -1.547479 0.682085 6.858335 -1.160919 3.142501 13.578959 2.333580 -73.244217 23.171389 -23.123672 -9.969543 0.010717 -5.820925 5.580730 -0.230581 5.473234 -8.477578 9.157759 -9.577968 49.764023 55.529606 40.787857 6.190855 -10.091126 8.214922 -7.833436 -10.798310 4.001260 11.638374 -9.226850 2.443423 0.505744 9.666542 15.891703 -5.985045 3.295620 -9.895033 0.000000 0.000000 0.000000 -6.115819 -4.970720 13.324099 11.591224 13.747852 -8.251352 -4.756005 -8.096882 -8.810704 0.000000 0.000000 0.000000 
-9.555660 84.936935 12.127987 1.298535 2.512764 -25.778774 2.828843 -3.843787 0.257269 2.687539 -1.321422 0.084827 2.642917 9.575450 -1.526452 0.846554 7.137779 -1.162713 3.235084 13.525470 2.471774 -73.162811 23.086521 -23.191071 -10.231096 0.180861 -5.831533 5.651593 -0.061390 5.676635 -8.320277 9.064546 -9.593972 49.503468 55.654625 41.027153 6.138282 -10.176006 8.196579 -7.709833 -10.870771 3.951804 11.847825 -8.912664 1.986454 0.342104 8.676277 16.207724 -5.911802 3.831594 -9.932247 0.000000 0.000000 0.000000 -6.207972 -4.865709 13.459690 11.513349 13.659842 -8.030783 -4.559573 -7.970581 -8.505212 0.000000 0.000000 0.000000 
-9.508635 84.920883 12.467535 1.260282 2.522128 -26.668222 2.570987 -4.413558 0.554728 3.181601 -0.441701 0.163445 2.694650 9.609126 -1.727207 0.690670 6.951569 -1.327403 3.060102 13.545906 1.657649 -73.053391 22.670525 -23.429493 -10.198334 0.206304 -5.698479 5.596804 -0.025767 5.664215 -8.414321 8.955444 -9.702706 49.406975 55.464424 41.125546 6.066648 -10.313089 8.120397 -7.581594 -10.997884 4.009223 12.103924 -8.603819 1.649973 0.150374 7.753177 16.532522 -5.806504 4.313240 -10.018837 0.000000 0.000000 0.000000 -6.285831 -4.813574 13.711435 11.472569 13.644459 -7.699166 -4.415512 -7.972632 -8.299257 0.000000 0.000000 0.000000 
-9.440910 84.902863 12.829283 1.264765 2.522534 -27.556787 2.798837 -3.660728 0.246423 2.854633 -1.541898 0.090170 2.476511 9.620872 -1.339960 0.981552 7.587588 -1.034719 3.037997 13.797003 2.570716 -72.862007 23.234713 -23.382261 -10.355424 0.194113 -5.711334 5.675147 -0.037268 5.781466 -8.471697 9.210429 -9.476942 49.327663 55.598347 41.404980 6.180351 -10.215105 8.126580 -7.574692 -10.909348 4.027654 12.281474 -8.288090 1.295883 -0.011244 6.861223 16.762365 -5.690439 4.741204 -9.979505 0.000000 0.000000 0.000000 -6.431661 -4.772463 13.922454 11.432186 13.652204 -7.365099 -4.242860 -8.004160 -8.058226 0.000000 0.000000 0.000000 
-9.370326 84.903198 13.169919 1.308335 2.571350 -28.420029 2.777546 -3.743510 0.310077 2.759452 -1.437498 0.107631 2.717318 9.597957 -1.390842 0.828367 7.666169 -1.006152 3.225428 13.861442 2.514849 -72.848625 23.222013 -23.567415 -10.473662 0.246787 -5.569706 5.954880 0.034878 5.742290 -8.329961 9.166877 -9.573441 49.483772 55.377182 41.252453 6.255564 -10.087411 8.199240 -7.581012 -10.792433 4.044313 12.471824 -7.994133 0.906503 -0.253583 5.840518 16.917227 -5.460697 5.297327 -9.782140 0.000000 0.000000 0.000000 -6.574852 -4.756684 14.137323 11.359338 13.562316 -6.942698 -4.170197 -8.000093 -7.953472 0.000000 0.000000 0.000000 
